<svg width="113" height="30" viewBox="0 0 113 30" fill="none" xmlns="http://www.w3.org/2000/svg">
<g clip-path="url(#clip0_1607_2494)">
<path d="M22.9751 3.75H19.1536C19.1536 3.75 11.4206 10.9542 9.32537 13.75C8.41511 14.9667 8.0994 15.9542 10.822 19.675C13.0238 22.6792 2.66658 25.8167 4.91351 12.2833C5.35223 9.67083 12.4292 3.75 12.4292 3.75H7.61557C5.26203 3.75 1.89983 8.25417 1.252 9.73333C0.181832 12.1792 -0.658717 16.0375 0.718964 20.3833C1.68252 23.425 3.93355 27.0417 11.4165 26.55C11.4165 26.55 19.4284 20.1375 20.56 17.0125C21.0357 15.7 20.4329 15.0708 18.7969 11.7125C17.1937 8.425 23.0489 5.08333 25.0539 13.6417C27.0589 22.2 18.2352 26.5917 18.2352 26.5917C18.2352 26.5917 18.5878 26.5417 24.5373 26.5917C24.5373 26.5917 27.6616 24.1875 28.8261 21.0083C29.9906 17.8292 31.561 7.84167 22.9751 3.75ZM14.7951 18.4833C13.3108 18.4833 12.1094 17.2625 12.1094 15.7542C12.1094 14.2458 13.3108 13.025 14.7951 13.025C16.2794 13.025 17.4807 14.2458 17.4807 15.7542C17.4807 17.2625 16.2794 18.4833 14.7951 18.4833Z" fill="black"/>
</g>
<path d="M34.1479 22.0832V7.53773H40.1065C41.1864 7.53773 42.1185 7.73423 42.9026 8.12722C43.6915 8.51548 44.2995 9.07419 44.7268 9.80336C45.1541 10.5278 45.3678 11.3872 45.3678 12.3815C45.3678 13.39 45.1494 14.247 44.7127 14.9525C44.2761 15.6533 43.6563 16.1883 42.8533 16.5576C42.0504 16.9222 41.0996 17.1045 40.0008 17.1045H36.2327V14.3346H39.3529C39.8788 14.3346 40.3178 14.2659 40.6699 14.1286C41.0268 13.9866 41.2968 13.7735 41.4799 13.4894C41.663 13.2006 41.7546 12.8313 41.7546 12.3815C41.7546 11.9317 41.663 11.56 41.4799 11.2664C41.2968 10.9681 41.0268 10.7456 40.6699 10.5988C40.3131 10.4473 39.8741 10.3715 39.3529 10.3715H37.6343V22.0832H34.1479ZM42.2688 15.4355L45.8608 22.0832H42.0575L38.5359 15.4355H42.2688Z" fill="black"/>
<path d="M60.8945 14.8105C60.8945 16.4108 60.5893 17.7674 59.9789 18.8801C59.3685 19.9927 58.5421 20.8379 57.4997 21.4156C56.462 21.9932 55.2975 22.282 54.0062 22.282C52.7103 22.282 51.5435 21.9909 50.5058 21.4085C49.4681 20.8261 48.644 19.9809 48.0336 18.873C47.4279 17.7603 47.125 16.4061 47.125 14.8105C47.125 13.2101 47.4279 11.8535 48.0336 10.7409C48.644 9.62817 49.4681 8.783 50.5058 8.20534C51.5435 7.62769 52.7103 7.33887 54.0062 7.33887C55.2975 7.33887 56.462 7.62769 57.4997 8.20534C58.5421 8.783 59.3685 9.62817 59.9789 10.7409C60.5893 11.8535 60.8945 13.2101 60.8945 14.8105ZM57.3306 14.8105C57.3306 13.8635 57.1968 13.0633 56.9292 12.4099C56.6662 11.7565 56.2859 11.2617 55.7882 10.9255C55.2951 10.5893 54.7012 10.4213 54.0062 10.4213C53.316 10.4213 52.722 10.5893 52.2243 10.9255C51.7266 11.2617 51.3439 11.7565 51.0763 12.4099C50.8133 13.0633 50.6818 13.8635 50.6818 14.8105C50.6818 15.7574 50.8133 16.5576 51.0763 17.211C51.3439 17.8644 51.7266 18.3592 52.2243 18.6954C52.722 19.0316 53.316 19.1997 54.0062 19.1997C54.7012 19.1997 55.2951 19.0316 55.7882 18.6954C56.2859 18.3592 56.6662 17.8644 56.9292 17.211C57.1968 16.5576 57.3306 15.7574 57.3306 14.8105Z" fill="black"/>
<path d="M68.2617 22.0832H62.93V7.53773H68.2546C69.7243 7.53773 70.9897 7.82892 72.0509 8.41131C73.1168 8.98896 73.9385 9.82229 74.516 10.9113C75.0936 11.9956 75.3823 13.2929 75.3823 14.8034C75.3823 16.3185 75.0936 17.6206 74.516 18.7096C73.9432 19.7986 73.1238 20.6343 72.0579 21.2167C70.9921 21.7944 69.7266 22.0832 68.2617 22.0832ZM66.4163 19.086H68.1278C68.9355 19.086 69.6186 18.9487 70.1774 18.6741C70.7409 18.3947 71.1658 17.9426 71.4522 17.3176C71.7433 16.6878 71.8889 15.8498 71.8889 14.8034C71.8889 13.757 71.7433 12.9236 71.4522 12.3034C71.1611 11.6784 70.7315 11.2285 70.1633 10.9539C69.5999 10.6746 68.9049 10.5349 68.0785 10.5349H66.4163V19.086Z" fill="black"/>
<path d="M82.5241 22.0832H78.0728V7.53773H82.7213C84.1206 7.53773 85.3179 7.82892 86.3134 8.41131C87.3088 8.98896 88.0718 9.81993 88.6024 10.9042C89.133 11.9838 89.3983 13.2764 89.3983 14.782C89.3983 16.2972 89.1306 17.6017 88.5954 18.6954C88.0601 19.7844 87.2806 20.6225 86.257 21.2096C85.2334 21.792 83.9891 22.0832 82.5241 22.0832ZM79.8195 20.5207H82.4114C83.6041 20.5207 84.5925 20.2887 85.3766 19.8247C86.1608 19.3606 86.7453 18.7001 87.1304 17.8431C87.5154 16.9861 87.7079 15.9658 87.7079 14.782C87.7079 13.6078 87.5177 12.5969 87.1374 11.7494C86.7571 10.8971 86.1889 10.2437 85.433 9.78915C84.677 9.32987 83.7356 9.10023 82.6086 9.10023H79.8195V20.5207Z" fill="black"/>
<path d="M92.3283 22.0832V7.53773H101.034V9.10023H94.075V14.015H100.583V15.5775H94.075V20.5207H101.146V22.0832H92.3283Z" fill="black"/>
<path d="M104.182 22.0832V7.53773H112.887V9.10023H105.929V14.015H112.437V15.5775H105.929V20.5207H113V22.0832H104.182Z" fill="black"/>
<defs>
<clipPath id="clip0_1607_2494">
<rect width="29.7505" height="30" fill="white"/>
</clipPath>
</defs>
</svg>
